<?xml version="1.0" encoding="utf-8"?>
<!-- Generator: Adobe Illustrator 17.0.0, SVG Export Plug-In . SVG Version: 6.00 Build 0)  -->
<!DOCTYPE svg PUBLIC "-//W3C//DTD SVG 1.1//EN" "http://www.w3.org/Graphics/SVG/1.1/DTD/svg11.dtd">
<svg version="1.1"
	 id="Layer_1" xmlns:sodipodi="http://sodipodi.sourceforge.net/DTD/sodipodi-0.dtd" xmlns:rdf="http://www.w3.org/1999/02/22-rdf-syntax-ns#" xmlns:dc="http://purl.org/dc/elements/1.1/" xmlns:cc="http://creativecommons.org/ns#" xmlns:inkscape="http://www.inkscape.org/namespaces/inkscape" xmlns:svg="http://www.w3.org/2000/svg"
	 xmlns="http://www.w3.org/2000/svg" xmlns:xlink="http://www.w3.org/1999/xlink" x="0px" y="0px" width="22.385px"
	 height="22.992px" viewBox="0 0 22.385 22.992" enable-background="new 0 0 22.385 22.992" xml:space="preserve">
<g>
	<path fill="#7AA4D7" d="M13.569,0H8.816C8.516,0,8.272,0.244,8.272,0.545v8.681H4.065C3.764,9.226,3.52,9.47,3.52,9.77v1.877H0.545
		C0.244,11.647,0,11.891,0,12.192v10.255c0,0.301,0.244,0.545,0.545,0.545h3.52h4.751h0h4.752h4.751h3.521
		c0.301,0,0.545-0.244,0.545-0.545v-7.713c0-0.301-0.244-0.545-0.545-0.545h-2.976v-7.99c0-0.301-0.244-0.545-0.545-0.545h-4.207
		v-5.11C14.113,0.244,13.869,0,13.569,0z M3.52,21.902H1.09v-9.166H3.52V21.902z M8.272,21.902H4.61V10.315h3.662V21.902z
		 M13.024,21.902H9.361V9.774c0-0.001,0-0.002,0-0.004c0-0.001,0-0.002,0-0.003V1.089h3.662V21.902z M18.865,15.278h2.431v6.624
		h-2.431V15.278z M17.775,6.744v15.158h-3.662V6.744H17.775z"/>
	<path fill="#7AA4D7" d="M11.193,4.187c0.2,0,0.363-0.163,0.363-0.363V2.235c0-0.201-0.163-0.363-0.363-0.363
		c-0.201,0-0.363,0.163-0.363,0.363v1.589C10.829,4.024,10.992,4.187,11.193,4.187z"/>
	<path fill="#7AA4D7" d="M11.193,8.409c0.2,0,0.363-0.163,0.363-0.363V6.457c0-0.201-0.163-0.363-0.363-0.363
		c-0.201,0-0.363,0.163-0.363,0.363v1.589C10.829,8.246,10.992,8.409,11.193,8.409z"/>
	<path fill="#7AA4D7" d="M11.193,12.63c0.2,0,0.363-0.163,0.363-0.363v-1.589c0-0.201-0.163-0.363-0.363-0.363
		c-0.201,0-0.363,0.163-0.363,0.363v1.589C10.829,12.468,10.992,12.63,11.193,12.63z"/>
	<path fill="#7AA4D7" d="M11.193,16.852c0.2,0,0.363-0.163,0.363-0.363V14.9c0-0.201-0.163-0.363-0.363-0.363
		c-0.201,0-0.363,0.163-0.363,0.363v1.589C10.829,16.69,10.992,16.852,11.193,16.852z"/>
	<path fill="#7AA4D7" d="M11.193,21.074c0.2,0,0.363-0.163,0.363-0.363v-1.589c0-0.201-0.163-0.363-0.363-0.363
		c-0.201,0-0.363,0.163-0.363,0.363v1.589C10.829,20.911,10.992,21.074,11.193,21.074z"/>
	<path fill="#7AA4D7" d="M15.944,11.259c0.201,0,0.363-0.163,0.363-0.363V9.307c0-0.201-0.163-0.363-0.363-0.363
		c-0.201,0-0.363,0.163-0.363,0.363v1.589C15.581,11.096,15.744,11.259,15.944,11.259z"/>
	<path fill="#7AA4D7" d="M15.944,15.481c0.201,0,0.363-0.163,0.363-0.363v-1.589c0-0.201-0.163-0.363-0.363-0.363
		c-0.201,0-0.363,0.163-0.363,0.363v1.589C15.581,15.318,15.744,15.481,15.944,15.481z"/>
	<path fill="#7AA4D7" d="M15.944,19.703c0.201,0,0.363-0.163,0.363-0.363V17.75c0-0.201-0.163-0.363-0.363-0.363
		c-0.201,0-0.363,0.163-0.363,0.363v1.589C15.581,19.54,15.744,19.703,15.944,19.703z"/>
	<path fill="#7AA4D7" d="M20.08,16.956c-0.201,0-0.363,0.163-0.363,0.363v1.589c0,0.201,0.163,0.363,0.363,0.363
		c0.201,0,0.364-0.163,0.364-0.363v-1.589C20.444,17.119,20.281,16.956,20.08,16.956z"/>
	<path fill="#7AA4D7" d="M6.441,15.481c0.201,0,0.363-0.163,0.363-0.363v-1.589c0-0.201-0.162-0.363-0.363-0.363
		c-0.201,0-0.363,0.163-0.363,0.363v1.589C6.078,15.318,6.24,15.481,6.441,15.481z"/>
	<path fill="#7AA4D7" d="M6.441,19.703c0.201,0,0.363-0.163,0.363-0.363V17.75c0-0.201-0.162-0.363-0.363-0.363
		c-0.201,0-0.363,0.163-0.363,0.363v1.589C6.078,19.54,6.24,19.703,6.441,19.703z"/>
	<path fill="#7AA4D7" d="M2.305,19.271c0.201,0,0.363-0.163,0.363-0.363v-1.589c0-0.201-0.162-0.363-0.363-0.363
		c-0.201,0-0.363,0.163-0.363,0.363v1.589C1.942,19.109,2.104,19.271,2.305,19.271z"/>
</g>
</svg>
