<?xml version="1.0" encoding="utf-8"?>
<!-- Generator: Adobe Illustrator 17.0.0, SVG Export Plug-In . SVG Version: 6.00 Build 0)  -->
<!DOCTYPE svg PUBLIC "-//W3C//DTD SVG 1.1//EN" "http://www.w3.org/Graphics/SVG/1.1/DTD/svg11.dtd">
<svg version="1.1" id="Layer_1" xmlns="http://www.w3.org/2000/svg" xmlns:xlink="http://www.w3.org/1999/xlink" x="0px" y="0px"
	 width="1287.04px" height="1440px" viewBox="0 0 1287.04 1440" enable-background="new 0 0 1287.04 1440" xml:space="preserve">
<g>
	<g>
		<path fill="#3B4248" d="M643.52,643.52c-32.96,0-59.696-26.72-59.696-59.696V59.696C583.824,26.72,610.56,0,643.52,0
			s59.696,26.72,59.696,59.696V583.84C703.216,616.8,676.48,643.52,643.52,643.52z"/>
	</g>
	<g>
		<path fill="#3B4248" d="M643.52,1440C288.672,1440,0,1151.312,0,796.48c0-234.544,127.728-450.624,333.312-563.936
			C362.16,216.64,398.48,227.12,414.4,256c15.92,28.864,5.408,65.168-23.456,81.088C223.44,429.408,119.392,605.44,119.392,796.48
			c0,289.024,235.12,524.144,524.144,524.144s524.128-235.136,524.128-524.144c0-192.384-105.12-368.992-274.336-460.928
			c-28.976-15.728-39.696-51.968-23.952-80.928c15.728-28.96,52-39.696,80.928-23.952
			c207.712,112.832,336.736,329.632,336.736,565.808C1287.04,1151.312,998.368,1440,643.52,1440z"/>
	</g>
</g>
</svg>
