<?xml version="1.0" encoding="utf-8"?>
<!-- Generator: Adobe Illustrator 17.0.0, SVG Export Plug-In . SVG Version: 6.00 Build 0)  -->
<!DOCTYPE svg PUBLIC "-//W3C//DTD SVG 1.1//EN" "http://www.w3.org/Graphics/SVG/1.1/DTD/svg11.dtd">
<svg version="1.1" id="Layer_1" xmlns="http://www.w3.org/2000/svg" xmlns:xlink="http://www.w3.org/1999/xlink" x="0px" y="0px"
	 width="1152px" height="1328px" viewBox="0 0 1152 1328" enable-background="new 0 0 1152 1328" xml:space="preserve">
<path fill="#BBCFDA" d="M578.672,0h-5.328C504.224,0,448,56.224,448,125.328v22.928C281.056,202.4,160,359.328,160,544.08v352.56
	c0,17.296-14.064,31.36-31.36,31.36H128h-0.96C56.992,928,0,984.992,0,1055.04v1.92C0,1127.008,56.992,1184,127.04,1184h299.952
	c6.544,77.888,71.92,144,151.472,144h2.432c79.552,0,144.928-66.112,151.472-144h308.592c66.416,0,111.04-51.056,111.04-127.04
	v-1.92c0-75.984-44.624-127.04-111.04-127.04H1040h-0.64c-17.296,0-31.36-14.064-31.36-31.36V548.08
	c0-191.36-128.672-353.136-304-403.648v-19.104C704,56.224,647.776,0,578.672,0z M512,125.328C512,91.52,539.52,64,573.328,64h5.328
	C612.48,64,640,91.52,640,125.328v6.016c-17.072-2.128-34.432-3.344-52.08-3.344h-11.84c-21.792,0-43.184,1.696-64.08,4.944
	L512,125.328L512,125.328z M580.88,1264h-2.432c-44.24,0-80.96-37.472-87.184-80h176.8C661.84,1226.528,625.12,1264,580.88,1264z
	 M1040,992h0.96c42.448,0,47.04,44.08,47.04,63.04v1.92c0,18.96-4.592,63.04-47.04,63.04H700.992H458.336H127.04
	c-34.752,0-63.04-28.288-63.04-63.04v-1.92c0-34.752,28.288-63.04,63.04-63.04H128h0.64h910.72L1040,992L1040,992z M944,548.08
	v348.56c0,11.008,1.968,21.52,5.408,31.36H218.592c3.44-9.84,5.408-20.352,5.408-31.36V544.08C224,349.936,381.952,192,576.08,192
	h11.84C784.272,192,944,351.728,944,548.08z"/>
</svg>
