<?xml version="1.0" encoding="utf-8"?>
<!-- Generator: Adobe Illustrator 17.0.0, SVG Export Plug-In . SVG Version: 6.00 Build 0)  -->
<!DOCTYPE svg PUBLIC "-//W3C//DTD SVG 1.1//EN" "http://www.w3.org/Graphics/SVG/1.1/DTD/svg11.dtd">
<svg version="1.1" id="Layer_1" xmlns="http://www.w3.org/2000/svg" xmlns:xlink="http://www.w3.org/1999/xlink" x="0px" y="0px"
	 width="1464.958px" height="1452.133px" viewBox="0 0 1464.958 1452.133" enable-background="new 0 0 1464.958 1452.133"
	 xml:space="preserve">
<g transform="matrix(-2.32182,-7.51649e-16,-8.59027e-16,2.32182,133.428,-32.0182)">
	<path fill="#BBCFDA" d="M-207.543,17.847c-33.429-5.41-67.505-5.41-100.914,0v63.429c-24.59,4.99-48.286,13.619-70.324,25.581
		l-40.762-48.571c-29.086,17.333-55.2,39.238-77.314,64.857l40.762,48.59c-15.6,19.619-28.21,41.467-37.41,64.8l-62.457-11.01
		c-11.143,31.962-17.048,65.524-17.524,99.39l62.457,11.01c0.667,25.067,5.029,49.905,12.99,73.695l-54.914,31.695
		c12.019,31.657,29.048,61.162,50.457,87.41l54.914-31.714c16.629,18.781,35.943,34.99,57.333,48.095l-21.695,59.6
		c29.562,16.514,61.581,28.171,94.838,34.514l21.695-59.6c24.8,3.714,50.019,3.714,74.819,0l21.695,59.6
		c33.257-6.343,65.276-18,94.838-34.514l-21.695-59.6c21.371-13.105,40.705-29.314,57.314-48.095l54.933,31.714
		c21.39-26.248,38.438-55.752,50.457-87.41l-54.933-31.695c7.962-23.79,12.343-48.629,12.99-73.695l62.457-11.01
		c-0.457-33.867-6.381-67.429-17.524-99.39l-62.457,11.01c-9.181-23.333-21.79-45.181-37.41-64.8l40.762-48.59
		c-22.114-25.619-48.209-47.524-77.295-64.857l-40.781,48.571c-22.038-11.962-45.733-20.59-70.305-25.581V17.847z M-258,191.943
		c75.81,0,137.352,61.543,137.352,137.352S-182.19,466.647-258,466.647c-75.81,0-137.371-61.543-137.371-137.352
		S-333.809,191.943-258,191.943z"/>
</g>
</svg>
